# xmcd
# 
# Track frame offsets:
#     150
#     13190
#     29235
#     44610
#     56647
#     68957
#     84282
#     97810
#     112127
#     126380
# 
# Disc length: 1827
# 
# Revision: 2
# Processed by: cddbd v1.5.2PL0 Copyright (c) Steve Scherf et al.
# Submitted via: fre:ac v1.0.17
# 
DISCID=8f07210a
DTITLE=The Oak Ridge Boys - Bobbie Sue
DYEAR=1982
DGENRE=Country
TTITLE0=Bobbie Sue
TTITLE1=I Wish You Were Here (Oh My Darlin)
TTITLE2=Doctors Orders
TTITLE3=Old Kentucky Song
TTITLE4=So Fine
TTITLE5=I Wish You Could Have Turned My Head (And Left My Heart Alone)
TTITLE6=Back In Your Arms Again
TTITLE7=Up On Cripple Creek
TTITLE8=Until You
TTITLE9=Would They Love Him Down In Shreveport
EXTD=
EXTT0=
EXTT1=
EXTT2=
EXTT3=
EXTT4=
EXTT5=
EXTT6=
EXTT7=
EXTT8=
EXTT9=
PLAYORDER=
